HIERARCHY
ROOT Pelvis
{
	OFFSET 0.000000 0.000000 0.000000
	CHANNELS 6 Xposition Yposition Zposition Xrotation Yrotation Zrotation
	JOINT LeftUpLeg_virtual
	{
		OFFSET 0.000000 0.000000 0.000000
		CHANNELS 3 Xrotation Yrotation Zrotation
		JOINT LeftUpLeg
		{
			OFFSET 18.735201 -5.666702 -4.541200
			CHANNELS 3 Xrotation Yrotation Zrotation
			JOINT LeftLeg
			{
				OFFSET -0.021200 -31.938179 0.493100
				CHANNELS 3 Xrotation Yrotation Zrotation
				JOINT LeftFoot
				{
					OFFSET 0.021200 -31.938179 -4.336299
					CHANNELS 3 Xrotation Yrotation Zrotation
					JOINT LeftToeBase
					{
						OFFSET 0.943001 -26.722000 15.023500
						CHANNELS 3 Xrotation Yrotation Zrotation
						End Site
						{
							OFFSET 0 0 0
						}
					}
				}
			}
		}
	}
	JOINT RightUpLeg_virtual
	{
		OFFSET 0.000000 0.000000 0.000000
		CHANNELS 3 Xrotation Yrotation Zrotation
		JOINT RightUpLeg
		{
			OFFSET -18.735201 -5.666702 -4.541200
			CHANNELS 3 Xrotation Yrotation Zrotation
			JOINT RightLeg
			{
				OFFSET 0.018946 -31.938133 0.493100
				CHANNELS 3 Xrotation Yrotation Zrotation
				JOINT RightFoot
				{
					OFFSET -0.018946 -31.938126 -4.336299
					CHANNELS 3 Xrotation Yrotation Zrotation
					JOINT RightToeBase
					{
						OFFSET -0.943001 -26.722004 15.023500
						CHANNELS 3 Xrotation Yrotation Zrotation
						End Site
						{
							OFFSET 0 0 0
						}
					}
				}
			}
		}
	}
	JOINT Hips_virtual
	{
		OFFSET 0.000000 0.000000 0.000000
		CHANNELS 3 Xrotation Yrotation Zrotation
		JOINT Hips
		{
			OFFSET -0.000000 -0.000000 -0.000000
			CHANNELS 3 Xrotation Yrotation Zrotation
			JOINT Spine
			{
				OFFSET 0.000000 10.199997 -0.299500
				CHANNELS 3 Xrotation Yrotation Zrotation
				JOINT Spine1
				{
					OFFSET 0.000000 11.900002 -1.516600
					CHANNELS 3 Xrotation Yrotation Zrotation
					JOINT Spine2
					{
						OFFSET 0.000000 13.600006 -2.842500
						CHANNELS 3 Xrotation Yrotation Zrotation
						JOINT Neck_virtual
						{
							OFFSET 0.000000 0.000000 0.000000
							CHANNELS 3 Xrotation Yrotation Zrotation
							JOINT Neck
							{
								OFFSET 0.000000 9.624100 -2.890100
								CHANNELS 3 Xrotation Yrotation Zrotation
								JOINT Head
								{
									OFFSET 0.000000 14.068802 -1.351900
									CHANNELS 3 Xrotation Yrotation Zrotation
									End Site
									{
										OFFSET 0 0 0
									}
								}
							}
						}
						JOINT LeftShoulder_virtual
						{
							OFFSET 0.000000 0.000000 0.000000
							CHANNELS 3 Xrotation Yrotation Zrotation
							JOINT LeftShoulder
							{
								OFFSET 15.263000 10.923401 -0.547700
								CHANNELS 3 Xrotation Yrotation Zrotation
								JOINT LeftArm
								{
									OFFSET 25.438599 -2.830597 -13.032500
									CHANNELS 3 Xrotation Yrotation Zrotation
									JOINT LeftForeArm
									{
										OFFSET 29.960503 0.000000 0.000000
										CHANNELS 3 Xrotation Yrotation Zrotation
										JOINT LeftHand
										{
											OFFSET 27.849251 0.000000 0.000000
											CHANNELS 3 Xrotation Yrotation Zrotation
											End Site
											{
												OFFSET 0 0 0
											}
										}
									}
								}
							}
						}
						JOINT RightShoulder_virtual
						{
							OFFSET 0.000000 0.000000 0.000000
							CHANNELS 3 Xrotation Yrotation Zrotation
							JOINT RightShoulder
							{
								OFFSET -15.263000 10.923401 -0.547700
								CHANNELS 3 Xrotation Yrotation Zrotation
								JOINT RightArm
								{
									OFFSET -25.438599 -2.830597 -13.032500
									CHANNELS 3 Xrotation Yrotation Zrotation
									JOINT RightForeArm
									{
										OFFSET -29.960503 0.000000 0.000000
										CHANNELS 3 Xrotation Yrotation Zrotation
										JOINT RightHand
										{
											OFFSET -27.849251 0.000000 0.000000
											CHANNELS 3 Xrotation Yrotation Zrotation
											End Site
											{
												OFFSET 0 0 0
											}
										}
									}
								}
							}
						}
					}
				}
			}
		}
	}
}
MOTION
Frames: 5
Frame Time: 0.03333333
-1.457191 74.093613 6.755398 0.000000 0.000000 0.000000 26.106330 -23.000080 8.698874 -81.028351 -7.374787 25.918609 65.966807 -2.583233 4.845809 -4.582589 2.291123 -22.345065 0.000000 0.000000 0.000000 26.106330 -23.000080 8.698874 -73.662183 -0.643675 -26.124089 70.666373 1.419745 -7.221175 -16.305945 -5.152288 21.320272 0.000000 0.000000 0.000000 26.106330 -23.000080 8.698874 0.000001 0.000001 -0.000000 14.946428 2.710619 -0.697658 9.003397 1.560770 -0.642825 0.000000 0.000000 0.000000 8.977737 1.670483 -0.748277 -3.144962 1.100280 -3.245748 0.000000 0.000000 0.000000 8.977737 1.670483 -0.748277 3.941280 -6.602833 9.980202 -51.728909 5.083704 -64.509552 0.000426 -86.914212 0.000416 0.000000 0.000000 0.000000 8.977737 1.670483 -0.748277 3.972217 12.305896 4.222357 -39.870597 11.659999 46.257115 179.999076 88.978746 -179.999131 0.000000 0.000000 0.000000 
-1.463940 74.332565 6.979462 0.000000 0.000000 0.000000 26.322053 -23.039977 8.777269 -80.776768 -7.082999 25.946663 65.687432 -2.724088 4.883898 -4.867564 2.327568 -22.313224 0.000000 0.000000 0.000000 26.322053 -23.039977 8.777269 -73.369817 -1.025331 -25.993881 70.021474 1.142145 -7.530588 -16.339704 -4.798783 21.273189 0.000000 0.000000 0.000000 26.322053 -23.039977 8.777269 0.000000 0.000001 0.000000 14.946040 2.507329 -0.803725 8.954929 1.454251 -0.667652 0.000000 0.000000 0.000000 8.929217 1.567218 -0.769628 -3.068386 1.147551 -3.131432 0.000000 0.000000 0.000000 8.929217 1.567218 -0.769628 3.858311 -6.469473 9.422129 -49.881056 5.784877 -65.370948 0.001600 -89.198377 0.001465 0.000000 0.000000 0.000000 8.929217 1.567218 -0.769628 3.960233 12.222857 4.273397 -38.946920 11.840052 48.020823 179.999909 86.265084 -179.999909 0.000000 0.000000 0.000000 
-1.512481 74.441910 7.107834 0.000000 0.000000 0.000000 26.594011 -23.182897 8.901889 -80.651632 -7.000038 26.073175 65.607457 -2.797162 4.939309 -5.145444 2.390531 -22.483291 0.000000 0.000000 0.000000 26.594011 -23.182897 8.901889 -73.378662 -1.217669 -25.708424 69.727502 0.966586 -7.779198 -16.392179 -4.629156 21.149399 0.000000 0.000000 0.000000 26.594011 -23.182897 8.901889 0.000003 0.000000 0.000001 14.960054 2.227192 -0.861391 8.932681 1.291004 -0.662406 0.000000 0.000000 0.000000 8.908017 1.411638 -0.757964 -3.046563 1.228670 -3.024532 0.000000 0.000000 0.000000 8.908017 1.411638 -0.757964 3.730458 -6.286349 8.218745 -48.220210 5.755350 -65.566599 -179.999964 -88.580450 179.999950 0.000000 0.000000 0.000000 8.908017 1.411638 -0.757964 3.981628 12.107283 3.979450 -38.415863 11.620496 49.978765 179.999923 83.383516 -179.999909 0.000000 0.000000 0.000000 
-1.614981 74.436295 7.159042 0.000000 0.000000 0.000000 26.939118 -23.373887 9.098854 -80.649132 -7.055917 26.243224 65.649340 -2.812644 5.022983 -5.397026 2.468436 -22.783897 0.000000 0.000000 0.000000 26.939118 -23.373887 9.098854 -73.635764 -1.207975 -25.378456 69.676133 0.967632 -8.007943 -16.372066 -4.637156 21.203860 0.000000 0.000000 0.000000 26.939118 -23.373887 9.098854 -0.000001 0.000000 0.000000 14.987148 1.941965 -0.834399 8.922846 1.103807 -0.624598 0.000000 0.000000 0.000000 8.900820 1.229003 -0.711225 -3.074366 1.331372 -2.952135 0.000000 0.000000 0.000000 8.900820 1.229003 -0.711225 3.590613 -6.098769 6.593867 -46.754725 5.551500 -65.181253 179.999827 -86.628321 179.999896 0.000000 0.000000 0.000000 8.900820 1.229003 -0.711225 3.972946 11.944950 3.645316 -37.723872 11.625853 51.744219 179.999308 80.145098 -179.999322 0.000000 0.000000 0.000000 
-1.777386 74.332230 7.138809 0.000000 0.000000 0.000000 27.268827 -23.584785 9.334052 -80.708794 -7.180471 26.451461 65.778670 -2.830764 5.144757 -5.610381 2.552987 -23.161166 0.000000 0.000000 0.000000 27.268827 -23.584785 9.334052 -74.057631 -1.027612 -25.080395 69.856415 1.054825 -8.228337 -16.280253 -4.685148 21.487389 0.000000 0.000000 0.000000 27.268827 -23.584785 9.334052 0.000000 -0.000002 0.000000 15.069311 1.747167 -0.748681 8.939671 0.957384 -0.571680 0.000000 0.000000 0.000000 8.920483 1.082581 -0.650626 -3.122396 1.422577 -2.918882 0.000000 0.000000 0.000000 8.920483 1.082581 -0.650626 3.463477 -5.915802 5.093592 -45.480334 5.589821 -64.700333 179.999991 -85.077369 179.999978 0.000000 0.000000 0.000000 8.920483 1.082581 -0.650626 3.929807 11.747138 3.404046 -36.530297 12.188367 52.703434 179.999732 76.844464 -179.999759 0.000000 0.000000 0.000000 
